# xmcd
#
# Track frame offsets:
# 150
# 18126
# 39328
# 62935
# 84403
# 105238
# 123148
# 146293
# 175392
# 195692
# 219212
#
# Disc length: 3171 seconds
#
# Revision: 0
# Processed by: cddbd v1.5.1PL0 Copyright (c) Steve Scherf et al.
# Submitted via: Audion 3.0.2 (http://www.panic.com/audion/)
#
DISCID=840c610b
DTITLE=me - my cd
DYEAR=1900
DGENRE=
TTITLE0=gh
TTITLE1=gj
TTITLE2=vbmn
TTITLE3=ghjm
TTITLE4=xcnfg
TTITLE5=xcgnfg
TTITLE6=fghb 
TTITLE7=fgbn
TTITLE8=f
TTITLE9=h vb
TTITLE10=fdvh
EXTD=
EXTT0=
EXTT1=
EXTT2=
EXTT3=
EXTT4=
EXTT5=
EXTT6=
EXTT7=
EXTT8=
EXTT9=
EXTT10=
PLAYORDER=
